<?xml version="1.0" standalone="no"?>
<!DOCTYPE svg PUBLIC "-//W3C//DTD SVG 20010904//EN"
 "http://www.w3.org/TR/2001/REC-SVG-20010904/DTD/svg10.dtd">
<svg version="1.0" xmlns="http://www.w3.org/2000/svg"
 width="150.000000pt" height="150.000000pt" viewBox="0 0 150.000000 150.000000"
 preserveAspectRatio="xMidYMid meet">
<metadata>
Created by potrace 1.11, written by Peter Selinger 2001-2013
</metadata>
<g transform="translate(0.000000,150.000000) scale(0.100000,-0.100000)"
fill="#000000" stroke="none">
<path d="M757 1339 c-91 -22 -198 -102 -237 -180 -22 -42 -39 -128 -34 -171
23 -197 336 -255 499 -93 19 20 35 40 35 45 0 24 -25 19 -58 -13 -56 -53 -108
-75 -173 -74 -120 4 -165 87 -132 247 22 106 76 180 149 205 91 31 181 -24
200 -122 6 -33 28 -50 40 -31 7 10 27 92 41 160 5 28 1 29 -44 14 -12 -4 -45
-1 -75 8 -60 16 -155 19 -211 5z"/>
<path d="M415 680 c-6 -9 33 -30 55 -30 23 0 21 -56 -4 -153 -15 -56 -34 -129
-43 -162 -25 -95 -38 -114 -88 -127 -24 -7 -47 -18 -49 -25 -5 -11 19 -13 121
-11 83 2 128 7 130 14 2 7 -9 15 -24 19 -65 16 -66 34 -18 217 49 187 63 229
65 198 1 -14 3 -34 5 -45 2 -11 11 -67 19 -125 9 -58 18 -114 20 -125 2 -12 7
-47 11 -79 6 -46 12 -59 29 -66 13 -5 26 -4 33 4 12 11 136 187 248 353 57 85
83 113 66 71 -6 -13 -26 -90 -46 -173 -20 -82 -40 -164 -46 -181 -10 -31 -43
-54 -78 -54 -11 0 -21 -7 -25 -15 -5 -13 16 -15 154 -15 129 0 160 3 160 14 0
7 -14 16 -30 20 -17 3 -33 12 -36 20 -3 7 18 103 45 212 55 214 58 218 122
223 9 0 19 8 23 16 5 13 -14 15 -134 15 -125 0 -139 -2 -144 -18 -4 -10 -53
-87 -110 -171 l-104 -152 -11 68 c-7 37 -13 82 -16 98 -2 17 -6 44 -8 60 -3
17 -8 49 -12 73 l-7 42 -133 0 c-79 0 -136 -4 -140 -10z"/>
</g>
</svg>
